G04*
G04 #@! TF.GenerationSoftware,Altium Limited,Altium Designer,20.0.12 (288)*
G04*
G04 Layer_Color=8388736*
%FSLAX44Y44*%
%MOMM*%
G71*
G01*
G75*
%ADD11R,1.6000X1.6000*%
%ADD12C,1.6000*%
%ADD13C,2.1000*%
%ADD14C,1.1000*%
%ADD15C,2.6000*%
%ADD16C,0.7000*%
%ADD17C,6.1000*%
D11*
X306750Y552950D02*
D03*
D12*
Y527550D02*
D03*
Y502150D02*
D03*
Y476750D02*
D03*
Y451350D02*
D03*
Y425950D02*
D03*
D13*
X90000Y60400D02*
D03*
Y35000D02*
D03*
X35000D02*
D03*
Y60400D02*
D03*
X90000Y160400D02*
D03*
Y135000D02*
D03*
X35000D02*
D03*
Y160400D02*
D03*
X90000Y260400D02*
D03*
Y235000D02*
D03*
X35000D02*
D03*
Y260400D02*
D03*
X90000Y360400D02*
D03*
Y335000D02*
D03*
X35000D02*
D03*
Y360400D02*
D03*
X90000Y560400D02*
D03*
Y535000D02*
D03*
X35000D02*
D03*
Y560400D02*
D03*
X90000Y460400D02*
D03*
Y435000D02*
D03*
X35000D02*
D03*
Y460400D02*
D03*
X90000Y660400D02*
D03*
Y635000D02*
D03*
X35000D02*
D03*
Y660400D02*
D03*
Y760400D02*
D03*
Y735000D02*
D03*
X90000D02*
D03*
Y760400D02*
D03*
D14*
X109000Y23200D02*
D03*
Y123200D02*
D03*
Y223200D02*
D03*
Y323200D02*
D03*
Y523200D02*
D03*
Y423200D02*
D03*
Y623200D02*
D03*
Y723200D02*
D03*
D15*
X62500Y28700D02*
D03*
Y66700D02*
D03*
Y128700D02*
D03*
Y166700D02*
D03*
Y228700D02*
D03*
Y266700D02*
D03*
Y328700D02*
D03*
Y366700D02*
D03*
Y528700D02*
D03*
Y566700D02*
D03*
Y428700D02*
D03*
Y466700D02*
D03*
Y628700D02*
D03*
Y666700D02*
D03*
Y766700D02*
D03*
Y728700D02*
D03*
D16*
X131500Y173500D02*
D03*
X233000Y413000D02*
D03*
X255588Y386781D02*
D03*
X265739Y386460D02*
D03*
X295510Y363760D02*
D03*
X295657Y354588D02*
D03*
X241540Y412181D02*
D03*
X250000Y394999D02*
D03*
X245000Y403000D02*
D03*
X235000Y399750D02*
D03*
X108250Y298000D02*
D03*
X168000Y362000D02*
D03*
X217000Y485000D02*
D03*
X219000Y548000D02*
D03*
X206762Y406769D02*
D03*
X144000Y492000D02*
D03*
X206750Y398000D02*
D03*
X241000Y347000D02*
D03*
X246000Y541000D02*
D03*
X152000Y505000D02*
D03*
X237000Y631000D02*
D03*
X171040Y581310D02*
D03*
X147520Y313540D02*
D03*
X117000Y448000D02*
D03*
X168000Y668000D02*
D03*
X241000Y243000D02*
D03*
X255276Y203736D02*
D03*
X172475Y508525D02*
D03*
X207000Y386750D02*
D03*
X166000Y377000D02*
D03*
X188000Y468000D02*
D03*
X160000Y545000D02*
D03*
X191975Y516275D02*
D03*
X237000Y608000D02*
D03*
X166000Y556000D02*
D03*
Y219000D02*
D03*
X180000Y166000D02*
D03*
X189000Y136000D02*
D03*
X225250Y607220D02*
D03*
X188500Y580500D02*
D03*
X167500Y634000D02*
D03*
D17*
X282000Y175000D02*
D03*
Y625000D02*
D03*
M02*
